<svg id="Capa_1" data-name="Capa 1" xmlns="http://www.w3.org/2000/svg" xmlns:xlink="http://www.w3.org/1999/xlink" viewBox="0 0 272.41 74.14">
  <defs>
    <style>
      .cls-1 {
        fill: none;
      }

      .cls-2 {
        clip-path: url(#clip-path);
      }

      .cls-3 {
        fill: #ff2e00;
      }
    </style>
    <clipPath id="clip-path" transform="translate(0 -0.86)">
      <rect class="cls-1" x="0.06" y="0.86" width="272.35" height="74.14"/>
    </clipPath>
  </defs>
  <title>logo</title>
  <path d="M264.32,6.9h1l2.09,2.23h1.43L266.42,6.6a2.41,2.41,0,0,0,1-.65,1.51,1.51,0,0,0,.36-1,1.47,1.47,0,0,0-.19-0.77A1.47,1.47,0,0,0,267,3.63a2.2,2.2,0,0,0-.76-0.25,7.79,7.79,0,0,0-1,0h-2v5.8h1.05V6.9m0-2.76h0.94a4.62,4.62,0,0,1,.56,0l0.42,0.14,0.3,0.29L266.62,5a1.33,1.33,0,0,1-.07.47l-0.28.35a1.2,1.2,0,0,1-.47.2,3.54,3.54,0,0,1-.68.06h-0.8V4.14Z" transform="translate(0 -0.86)"/>
  <path d="M265.33,11.83a5.3,5.3,0,0,0,3.88-1.61,5.3,5.3,0,0,0,1.61-3.88,5.29,5.29,0,0,0-1.61-3.88,5.49,5.49,0,0,0-7.76,0,5.32,5.32,0,0,0-1.61,3.88,5.32,5.32,0,0,0,1.61,3.88,5.3,5.3,0,0,0,3.88,1.61M262,3a4.68,4.68,0,0,1,6.7,0,4.63,4.63,0,0,1,1.39,3.38,4.63,4.63,0,0,1-1.39,3.38,4.68,4.68,0,0,1-6.7,0,4.62,4.62,0,0,1-1.39-3.38A4.62,4.62,0,0,1,262,3" transform="translate(0 -0.86)"/>
  <g class="cls-2">
    <path d="M250.46,50.78a14,14,0,1,0-14-14,14,14,0,0,0,14,14m0-23a9,9,0,1,1-9,9,9,9,0,0,1,9-9" transform="translate(0 -0.86)"/>
    <path d="M38.51,36.78A21.93,21.93,0,0,0,16.57,14.92h0l-5.72,0h0C4.27,15,0,19.26,0,25.92V58.65H16.57A21.93,21.93,0,0,0,38.51,36.78M5,52.23V25.92c0-3.87,2.09-6,5.88-6l5.7,0h0a16.91,16.91,0,1,1,0,33.81H6.45A1.47,1.47,0,0,1,5,52.23" transform="translate(0 -0.86)"/>
  </g>
  <path d="M30.59,36.78a14,14,0,0,0-14-14l-5.7,0c-2.18,0-2.95.8-2.95,3.06V50.76h8.65a14,14,0,0,0,14-14m-17.7-9,3.68,0a9,9,0,1,1,0,18H12.89v-18Z" transform="translate(0 -0.86)"/>
  <path class="cls-3" d="M96.63,20.19a1.94,1.94,0,0,0-1.51,1.35c0,0.14-7.54,22.43-11.95,35.35l0.4-.12a21.25,21.25,0,0,0,5.75-2.51c2.44-7.14,5.36-16,7.31-21.72L104,54.11A20.84,20.84,0,0,0,110.2,57c-4.4-12.94-12-35.27-12.06-35.41a1.94,1.94,0,0,0-1.5-1.35" transform="translate(0 -0.86)"/>
  <g class="cls-2">
    <polyline points="84.86 66.25 84.84 66.31 84.78 66.49 84.86 66.25"/>
    <path class="cls-3" d="M83.68,60.69l-1.78-.51c-1,3-1.76,5.37-1.82,5.56C79.22,68.55,77,70,73.56,70H0v5H73.56c5.66,0,9.76-2.86,11.27-7.84,0.19-.61.87-2.75,1.79-5.43a23.67,23.67,0,0,0-2.94-1" transform="translate(0 -0.86)"/>
    <path class="cls-3" d="M113.19,65.73c-0.08-.24-0.76-2.42-1.76-5.35L110,60.8A24.53,24.53,0,0,0,106.72,62c1.06,3.1,1.76,5.37,1.76,5.37l-0.07-.24c1.49,5,5.6,7.89,11.29,7.89H271V70H119.71c-3.42,0-5.66-1.49-6.52-4.32" transform="translate(0 -0.86)"/>
    <path d="M0,62.16v5H73.56c2.66,0,3.35-1.08,3.7-2.25v0L92.39,20.43l0-.06a4.4,4.4,0,0,1,8.42,0l0,0.06L116,64.81v0.05c0.35,1.17,1,2.25,3.7,2.25H226.35L209.54,40s1.64-.06,2.53-0.06c3,0,6.27-3.83,6.27-8.71,0-5.05-4.2-8.38-7.17-8.38H200.47a2.32,2.32,0,0,0-2.57,2.47V58.61h5V27.84h7.52c2.28,0,3.84,2.22,3.84,4.36,0,1.78-1,3.83-2.95,3.83-2.12,0-4.26-.4-5.43,1.19-1,1.38-1.2,3.12.73,6.61l11,18.32H120.33c-0.68-2-14.83-43.55-14.83-43.55l-0.13-.28a9.36,9.36,0,0,0-17.49,0l-0.13.28L72.93,62.16H0" transform="translate(0 -0.86)"/>
  </g>
  <path d="M221.1,44.15a18.13,18.13,0,0,0,5.15-12.88c0-9.4-7.83-16.27-15.09-16.27H200.47A10.19,10.19,0,0,0,190,25.35V58.61h5V25.35a5.22,5.22,0,0,1,5.52-5.4h10.69c5,0,10.12,4.9,10.12,11.32,0,5.54-3.25,10-6.9,11.24,1.26,2.15,11,17.28,15.26,24.6H271v-5H232.37c-2.39-4.15-7.92-12.29-11.27-18" transform="translate(0 -0.86)"/>
  <path d="M53.14,58.56l15.81,0,1.5-5H53.14c-3.8,0-5.9-2.13-5.9-6V25.95c0-3.87,2.1-6,5.9-6l20.35,0V15L53.13,15c-6.6,0-10.87,4.29-10.87,10.95V47.61c0,6.65,4.27,10.95,10.87,10.95" transform="translate(0 -0.86)"/>
  <path d="M50.19,25.94V35.3H67.48v-4H55.16V27.84H73.5v-5H53.14c-2.18,0-2.95.8-2.95,3.06" transform="translate(0 -0.86)"/>
  <path d="M67.49,42.26v-4H50.19v9.38c0,2.26.77,3.06,2.95,3.06h18.2l1.5-5H55.16V42.27H67.49" transform="translate(0 -0.86)"/>
  <path d="M164.25,58.56l20.35,0v-5H164.25c-3.8,0-5.89-2.13-5.89-6V25.95c0-3.87,2.09-6,5.89-6l20.36,0V15l-20.36,0c-6.6,0-10.86,4.29-10.86,10.95V47.61c0,6.65,4.26,10.95,10.87,10.95" transform="translate(0 -0.86)"/>
  <path d="M184.61,22.87H164.25c-2.17,0-2.94.8-2.94,3.06V35.3h17.28v-4H166.28V27.84l18.33,0v-5" transform="translate(0 -0.86)"/>
  <path d="M178.6,42.26v-4H161.31v9.38c0,2.26.77,3.06,2.94,3.06h20.36v-5H166.28V42.27H178.6" transform="translate(0 -0.86)"/>
  <path d="M139.69,58.67H149v-5h-9.3a16.91,16.91,0,1,1,0-33.81H149v-5h-9.3a21.86,21.86,0,1,0,0,43.73" transform="translate(0 -0.86)"/>
  <path d="M139.69,27.79H149v-5h-9.3a14,14,0,1,0,0,27.94H149v-5h-9.3a9,9,0,1,1,0-18" transform="translate(0 -0.86)"/>
  <path d="M96.82,47.74c-0.62,5.91-5.78,10.07-12.53,11,6.51,1.28,11.4,6,12.53,11,1.13-5,5.28-9.46,12.52-11-7.25-1.41-11.18-4.84-12.52-11" transform="translate(0 -0.86)"/>
  <path d="M250.46,58.67a21.86,21.86,0,1,0-21.95-21.86,21.9,21.9,0,0,0,21.95,21.86m0-38.77a16.91,16.91,0,1,1-17,16.91,16.94,16.94,0,0,1,17-16.91" transform="translate(0 -0.86)"/>
</svg>
